<svg width="16" height="16" viewBox="0 0 16 16" fill="none" xmlns="http://www.w3.org/2000/svg">
<g clip-path="url(#clip0_29_79)">
<path d="M7.3335 3.13467C7.33336 3.04181 7.30572 2.95107 7.25407 2.8739C7.20242 2.79674 7.12906 2.7366 7.04327 2.70108C6.95747 2.66557 6.86307 2.65626 6.77199 2.67434C6.68091 2.69242 6.59722 2.73707 6.5315 2.80266L4.2755 5.058C4.18843 5.14558 4.08485 5.21502 3.97076 5.26228C3.85666 5.30954 3.73432 5.33369 3.61083 5.33333H2.00016C1.82335 5.33333 1.65378 5.40357 1.52876 5.52859C1.40373 5.65362 1.3335 5.82319 1.3335 6V10C1.3335 10.1768 1.40373 10.3464 1.52876 10.4714C1.65378 10.5964 1.82335 10.6667 2.00016 10.6667H3.61083C3.73432 10.6663 3.85666 10.6905 3.97076 10.7377C4.08485 10.785 4.18843 10.8544 4.2755 10.942L6.53083 13.198C6.59656 13.2639 6.68037 13.3087 6.77162 13.3269C6.86288 13.3451 6.95748 13.3358 7.04345 13.3002C7.12941 13.2645 7.20286 13.2042 7.2545 13.1268C7.30613 13.0494 7.33363 12.9584 7.3335 12.8653V3.13467Z" stroke="white" stroke-width="1.33333" stroke-linecap="round" stroke-linejoin="round"/>
<path d="M10.6665 6C11.0992 6.57699 11.3332 7.27877 11.3332 8C11.3332 8.72123 11.0992 9.42301 10.6665 10" stroke="white" stroke-width="1.33333" stroke-linecap="round" stroke-linejoin="round"/>
<path d="M12.9092 12.2427C13.4663 11.6855 13.9083 11.0241 14.2098 10.2961C14.5114 9.56815 14.6666 8.78793 14.6666 7.99999C14.6666 7.21205 14.5114 6.43183 14.2098 5.70387C13.9083 4.97591 13.4663 4.31448 12.9092 3.75732" stroke="white" stroke-width="1.33333" stroke-linecap="round" stroke-linejoin="round"/>
</g>
<defs>
<clipPath id="clip0_29_79">
<rect width="16" height="16" fill="white"/>
</clipPath>
</defs>
</svg>
    